<?xml version="1.0" encoding="UTF-8" standalone="no"?><!DOCTYPE svg PUBLIC "-//W3C//DTD SVG 1.1//EN" "http://www.w3.org/Graphics/SVG/1.1/DTD/svg11.dtd"><svg width="100%" height="100%" viewBox="0 0 152 76" version="1.1" xmlns="http://www.w3.org/2000/svg" xmlns:xlink="http://www.w3.org/1999/xlink" xml:space="preserve" xmlns:serif="http://www.serif.com/" style="fill-rule:evenodd;clip-rule:evenodd;stroke-linejoin:round;stroke-miterlimit:2;"><rect id="Mesa-de-trabajo4" serif:id="Mesa de trabajo4" x="-44.287" y="-82.374" width="240" height="240" style="fill:none;"/><g><g><g><path d="M47.147,58.692l0,-38.4l13.416,0l0,38.4l-13.416,0Zm6.308,-43.145c0,0 -3.907,-3.035 -5.271,-4.17c-1.364,-1.136 -2.045,-2.748 -2.045,-4.836c0,-1.912 0.694,-3.481 2.081,-4.705c1.388,-1.224 3.27,-1.836 5.646,-1.836c2.424,0 4.318,0.568 5.681,1.704c1.364,1.136 2.046,2.748 2.046,4.836c0,1.912 -0.694,3.48 -2.082,4.704c-1.388,1.224 -6.056,4.303 -6.056,4.303Z" style="fill:#fff;fill-rule:nonzero;"/><path d="M77.782,58.692l-15.984,-38.4l14.893,0l8.579,28.656l1.191,-6.156l3.993,-22.5l14.832,0l-16.776,38.4l-10.728,0Z" style="fill:#fff;fill-rule:nonzero;"/><path d="M115.054,75.252l9.252,-21.78l0.132,5.904l-18.204,-39.084l15,0l6.408,15.311c0.52,1.2 0.979,2.382 1.375,3.546c0.396,1.164 0.694,2.266 0.893,3.306l-1.512,1.152c0.224,-0.608 0.526,-1.466 0.906,-2.574c0.38,-1.108 0.798,-2.366 1.254,-3.774l5.844,-16.967l15.024,0l-16.572,38.4l-6.708,16.56l-13.092,0Z" style="fill:#fff;fill-rule:nonzero;"/></g><g><path d="M34.668,42.694c-5.481,3.65 -12.953,2.818 -17.477,-2.229c-4.963,-5.538 -4.497,-14.051 1.041,-19.014c5.048,-4.524 12.566,-4.535 17.616,-0.308l10.29,-9.222c-10.169,-9.857 -26.376,-10.31 -37.085,-0.713c-11.195,10.032 -12.137,27.241 -2.105,38.436c9.597,10.709 25.757,12.028 36.941,3.341l-9.222,-10.29Z" style="fill:#fff;fill-rule:nonzero;"/><path d="M34.668,42.694c-5.481,3.65 -12.953,2.818 -17.477,-2.229c-4.963,-5.538 -4.497,-14.051 1.041,-19.014c5.048,-4.524 12.566,-4.535 17.616,-0.308l5.017,-4.496c-7.549,-6.961 -19.131,-3.971 -26.933,3.021c-8.29,7.429 -8.401,14.694 -0.971,22.984c6.992,7.802 17.94,11.153 26.203,5.058l-4.496,-5.017Z" style="fill:#fff;fill-rule:nonzero;"/></g></g></g></svg>