<?xml version="1.0" encoding="UTF-8" standalone="no"?><!DOCTYPE svg PUBLIC "-//W3C//DTD SVG 1.1//EN" "http://www.w3.org/Graphics/SVG/1.1/DTD/svg11.dtd"><svg width="100%" height="100%" viewBox="0 0 138 163" version="1.1" xmlns="http://www.w3.org/2000/svg" xmlns:xlink="http://www.w3.org/1999/xlink" xml:space="preserve" xmlns:serif="http://www.serif.com/" style="fill-rule:evenodd;clip-rule:evenodd;stroke-linejoin:round;stroke-miterlimit:2;"><rect id="Mesa-de-trabajo5" serif:id="Mesa de trabajo5" x="-51.153" y="-38.781" width="240" height="240" style="fill:none;"/><g><g><g><g><path d="M103.462,114.693c-16.358,10.894 -38.657,8.411 -52.157,-6.653c-14.812,-16.529 -13.421,-41.934 3.106,-56.745c15.065,-13.501 37.502,-13.534 52.572,-0.919l30.71,-27.521c-30.347,-29.416 -78.717,-30.768 -110.676,-2.127c-33.409,29.94 -36.221,81.296 -6.281,114.706c28.64,31.959 76.868,35.896 110.245,9.97l-27.521,-30.71Z" style="fill:#1a3d42;fill-rule:nonzero;"/><path d="M103.462,114.693c-16.358,10.894 -38.657,8.411 -52.157,-6.653c-14.812,-16.529 -13.421,-41.934 3.106,-56.745c15.065,-13.501 37.502,-13.534 52.572,-0.919l14.971,-13.416c-22.529,-20.775 -57.092,-11.85 -80.378,9.017c-24.74,22.171 -25.071,43.853 -2.899,68.594c20.867,23.285 53.54,33.285 78.2,15.094l-13.416,-14.971Z" style="fill:#142f32;fill-rule:nonzero;"/></g></g></g><path d="M122.35,79.303c0,0 -14.139,-18.201 -19.429,-24.556c-5.293,-6.352 -12.804,-9.528 -22.531,-9.528c-8.91,0 -16.215,3.232 -21.918,9.696c-5.702,6.467 -8.553,15.235 -8.553,26.304c0,11.292 2.647,20.115 7.94,26.467c5.293,6.356 12.804,9.533 22.531,9.533c8.906,0 16.21,-3.234 21.912,-9.701c5.702,-6.464 20.047,-28.215 20.047,-28.215Z" style="fill:#1a3d42;fill-rule:nonzero;"/></g></svg>